<svg width="163" height="64" viewBox="0 0 163 64" fill="none" xmlns="http://www.w3.org/2000/svg">
<path d="M91.965 51.6829H99.2384C99.3091 51.6879 99.3802 51.6785 99.4471 51.6553C99.5141 51.6321 99.5757 51.5955 99.628 51.5477C99.6804 51.5 99.7225 51.4422 99.7517 51.3777C99.7809 51.3132 99.7967 51.2435 99.7981 51.1728V31.1241C99.7981 25.439 102.597 22.4433 107.428 22.4433C112.26 22.4433 115.007 25.439 115.007 31.1241V51.1753C115.008 51.2461 115.024 51.3158 115.053 51.3803C115.083 51.4447 115.125 51.5026 115.177 51.5503C115.229 51.598 115.291 51.6346 115.358 51.6578C115.425 51.6811 115.496 51.6904 115.567 51.6854H122.84C122.911 51.6904 122.982 51.6811 123.049 51.6578C123.116 51.6346 123.177 51.598 123.23 51.5503C123.282 51.5026 123.324 51.4447 123.353 51.3803C123.383 51.3158 123.398 51.2461 123.4 51.1753V31.1752C123.4 22.5951 118.619 15.0825 107.427 15.0825C96.2342 15.0825 91.4053 22.5951 91.4053 31.1752V51.1753C91.407 51.2458 91.423 51.3153 91.4524 51.3795C91.4818 51.4436 91.524 51.5012 91.5763 51.5486C91.6286 51.5961 91.69 51.6324 91.7568 51.6555C91.8236 51.6786 91.8944 51.6879 91.965 51.6829Z" fill="#00A868"/>
<path d="M41.913 52.1406C44.5581 52.1406 46.2871 51.8358 47.0499 51.531C47.1637 51.4857 47.2623 51.4092 47.3344 51.3104C47.4065 51.2116 47.4492 51.0944 47.4576 50.9725V44.9787C47.4576 44.6229 47.3042 44.4201 46.8468 44.4201C46.4902 44.4201 45.4731 44.6229 44.6591 44.6229C41.5054 44.6229 40.133 43.456 40.133 40.7141V23.8142H46.8468C46.9948 23.8129 47.1364 23.7536 47.241 23.6491C47.3457 23.5447 47.4051 23.4034 47.4064 23.2556V16.7071C47.4051 16.5594 47.3457 16.4181 47.241 16.3136C47.1364 16.2091 46.9948 16.1498 46.8468 16.1485H39.8787V10.4633C39.8787 9.85375 39.6231 9.59998 39.1657 9.59998H32.2985C31.7401 9.59998 31.4858 9.85503 31.4858 10.4633V41.5801C31.4858 49.145 35.7065 52.1406 41.913 52.1406Z" fill="#00A868"/>
<path d="M12.7183 52.5461C20.908 52.5461 26.758 47.5203 26.758 40.9717C26.758 33.6108 21.8741 31.4798 15.2114 30.0579L11.9044 29.3476C9.41257 28.789 8.03889 27.6209 8.03889 25.6416C8.03889 23.1038 10.5818 21.7329 14.092 21.7329C19.0258 21.7329 22.3826 23.9659 22.8912 23.9659C23.0326 23.9565 23.1687 23.9092 23.2853 23.8288C23.4018 23.7484 23.4944 23.638 23.5531 23.5094L24.8757 18.5855C25.1313 17.9249 25.0789 17.7732 24.6201 17.5194C21.6696 15.9967 18.5159 15.1334 14.0396 15.1334C5.749 15.1334 0 19.9054 0 26.2512C0 32.245 4.62961 35.5403 11.245 36.9635L14.6019 37.6739C17.2981 38.2324 18.8187 39.2986 18.8187 41.5826C18.8187 43.9176 16.9876 45.9478 12.6634 45.9478C6.55915 45.9478 2.38828 43.5121 1.72764 43.5121C1.32001 43.5121 1.16795 43.7148 1.01588 44.3742L0.150784 48.4869C-0.104784 49.349 0.150785 49.9076 0.710479 50.1614C2.79719 51.3282 8.4938 52.5461 12.7183 52.5461Z" fill="#00A868"/>
<path d="M68.2114 45.4901C62.87 45.4901 57.9886 41.4794 57.9886 33.9157C57.9886 26.3521 62.8713 22.4383 68.2114 22.4383C73.6026 22.4383 78.3842 26.347 78.3842 33.9157C78.3842 41.5304 73.6026 45.4901 68.2114 45.4901ZM68.2114 52.8C78.8928 52.8 86.6749 44.8308 86.6749 33.9157C86.6749 23.0006 78.8928 15.0825 68.2114 15.0825C57.5797 15.0825 49.7466 23.0019 49.7466 33.9157C49.7466 44.8295 57.5797 52.8 68.2114 52.8Z" fill="#00A868"/>
<path d="M163 33.5102C163 22.2878 156.539 15.0825 146.26 15.0825C136.596 15.0825 128.254 22.4944 128.254 33.764C128.254 45.7949 136.799 52.8 145.955 52.8C153.636 52.8 158.067 49.7789 160.808 46.0997C161.339 45.3868 161.447 45.0795 161.447 44.8805C161.447 44.6816 161.32 44.526 160.858 44.1154L157.653 41.3238C156.887 40.6645 156.631 40.4604 156.376 40.4604C156.12 40.4604 155.968 40.6135 155.765 40.8673C153.577 43.8119 150.526 45.4863 146.406 45.4863C141.209 45.4863 137.746 41.9627 136.867 36.2469H160.339C161.976 36.2508 163 35.7368 163 33.5102ZM145.959 22.1386C151.51 22.1386 154.447 25.8764 154.607 30.007H136.991C137.956 25.5716 140.972 22.1386 145.959 22.1386Z" fill="#00A868"/>
</svg>
